#!OML:ASF C:\ViconDB\ViconDB\414\Spring2016\041811\Spring2016.ASF
:FULLY-SPECIFIED
:DEGREES
353
root 5.15435 20.2069 -46.3017 -172.836 -7.56209 177.547
lowerback 6.77851 -0.351077 -6.16183
upperback -2.46923 -1.06356 0.0936167
thorax -6.2963 -0.284289 3.69182
lowerneck -11.8367 -5.25331 -15.2553
upperneck 18.6659 -8.65374 16.701
head 9.18033 -3.97514 7.32294
rclavicle 1.99375e-014 3.18552e-014
rhumerus -15.7119 9.14563 -47.8421
rradius 116.559
rwrist -17.5923
rhand -28.7596 -9.57751
rfingers 7.12502
rthumb -2.11956 -39.5467
lclavicle 1.99375e-014 3.18552e-014
lhumerus -20.6384 -4.8698 46.7101
lradius 100.24
lwrist 10.5158
lhand -32.9264 19.3373
lfingers 7.12502
lthumb -6.14312 49.2283
rfemur -6.87635 -17.3173 12.4904
rtibia 46.383
rfoot -36.3519 19.3894
rtoes -17.7464
lfemur 0.907021 -1.7496 -10.6782
ltibia 24.4524
lfoot 24.4256 10.6036
ltoes 0.304775
354
root 5.15577 20.4154 -46.5991 -172.965 -7.65917 177.531
lowerback 6.96957 -0.326761 -6.62093
upperback -2.94901 -1.08727 0.474523
thorax -6.90635 -0.236143 4.36606
lowerneck -11.7704 -5.12036 -15.4873
upperneck 19.1294 -8.37225 16.2043
head 9.25874 -3.90555 7.23433
rclavicle 3.08893e-014 7.95139e-016
rhumerus -15.3511 9.1996 -46.0474
rradius 118.326
rwrist -20.5944
rhand -28.0021 -10.8484
rfingers 7.12502
rthumb -1.38795 -40.8236
lclavicle 3.08893e-014 7.95139e-016
lhumerus -20.6384 -4.8698 46.7101
lradius 100.24
lwrist 10.5158
lhand -32.9264 19.3373
lfingers 7.12502
lthumb -6.14312 49.2283
rfemur -6.57738 -16.7632 12.4377
rtibia 45.779
rfoot -37.0825 17.5245
rtoes -17.5443
lfemur 0.747825 -1.18716 -10.5505
ltibia 24.2899
lfoot 22.9735 8.9507
ltoes -2.48371
355
root 5.15576 20.5985 -46.877 -173.043 -7.78452 178.239
lowerback 7.09197 -0.416968 -5.99358
upperback -3.37846 -1.15114 0.814064
thorax -7.43063 -0.261222 4.38971
lowerneck -11.8727 -4.97458 -15.5587
upperneck 19.6462 -8.15115 15.8967
head 9.40214 -3.83982 7.17928
rclavicle -5.90142e-015 -9.74045e-015
rhumerus -15.0082 9.29517 -44.8569
rradius 119.897
rwrist -22.7543
rhand -27.6136 -12.2696
rfingers 7.12502
rthumb -1.01276 -42.2469
lclavicle -5.90142e-015 -9.74045e-015
lhumerus -20.6384 -4.8698 46.7101
lradius 100.24
lwrist 10.5158
lhand -32.9264 19.3373
lfingers 7.12502
lthumb -6.14312 49.2283
rfemur -6.59868 -16.4854 13.2594
rtibia 45.1535
rfoot -37.0826 15.4825
rtoes -17.6
lfemur 0.0727993 -0.354348 -9.62089
ltibia 24.5997
lfoot 22.3941 7.85348
ltoes -2.30022
356
root 5.15451 20.7602 -47.161 -173.273 -7.76077 177.715
lowerback 7.18636 -0.396624 -6.66884
upperback -3.26086 -1.17894 0.992984
thorax -7.34635 -0.24066 4.96656
lowerneck -12.887 -5.01907 -15.8206
upperneck 20.1506 -7.82113 15.1989
head 9.69527 -3.69944 7.0203
rclavicle -6.05051e-015 3.37934e-015
rhumerus -14.1383 9.15451 -43.4602
rradius 121.437
rwrist -25.3311
rhand -28.8524 -14.3162
rfingers 7.12502
rthumb -2.20918 -44.2845
lclavicle -6.05051e-015 3.37934e-015
lhumerus -20.6384 -4.8698 46.7101
lradius 100.24
lwrist 10.5158
lhand -32.9264 19.3373
lfingers 7.12502
lthumb -6.14312 49.2283
rfemur -6.34736 -16.7357 12.4674
rtibia 44.5016
rfoot -36.9823 13.7969
rtoes -17.2823
lfemur -0.412392 0.178007 -10.1521
ltibia 25.0775
lfoot 22.0643 7.76431
ltoes -1.34101
357
root 5.14942 20.9157 -47.4339 -173.624 -7.85893 177.793
lowerback 7.47194 -0.478293 -6.71032
upperback -3.21815 -1.29175 1.21875
thorax -7.44558 -0.282736 5.2528
lowerneck -12.9539 -4.05155 -15.5185
upperneck 19.7694 -6.33956 15.0754
head 9.29106 -2.96821 7.10896
rclavicle 1.90336e-014 8.54774e-015
rhumerus -13.4726 8.94421 -42.6234
rradius 122.43
rwrist -26.4045
rhand -29.8868 -15.7927
rfingers 7.12502
rthumb -3.20814 -45.7484
lclavicle 1.90336e-014 8.54774e-015
lhumerus -20.6384 -4.8698 46.7101
lradius 100.24
lwrist 10.5158
lhand -32.9264 19.3373
lfingers 7.12502
lthumb -6.14312 49.2283
rfemur -6.18182 -17.2988 12.4186
rtibia 43.704
rfoot -36.3372 12.9294
rtoes -16.6568
lfemur -0.928859 0.46986 -10.0396
ltibia 25.4182
lfoot 21.6005 7.88134
ltoes -1.28284
358
root 5.14151 21.0645 -47.7039 -173.994 -7.92818 178.816
lowerback 5.65369 -0.764006 -5.00004
upperback -2.02402 -1.36233 1.05288
thorax -5.14505 -0.494483 4.0446
lowerneck -13.1795 -3.41799 -14.6475
upperneck 18.4513 -5.38181 15.2841
head 8.70062 -2.37813 7.10394
rclavicle 2.10463e-014 -6.26172e-015
rhumerus -11.6962 7.14456 -43.0149
rradius 122.4
rwrist -24.8741
rhand -27.9757 -15.8939
rfingers 7.12502
rthumb -1.36244 -45.8693
lclavicle 2.10463e-014 -6.26172e-015
lhumerus -20.6384 -4.8698 46.7101
lradius 100.24
lwrist 10.5158
lhand -32.9264 19.3373
lfingers 7.12502
lthumb -6.14312 49.2283
rfemur -6.24989 -17.7182 13.5872
rtibia 42.726
rfoot -35.3368 12.7626
rtoes -15.8876
lfemur -1.40442 0.825713 -8.90668
ltibia 25.355
lfoot 20.6845 7.77472
ltoes -1.67158
359
root 5.13895 21.2023 -47.9813 -174.54 -8.19391 179.613
lowerback 3.87311 -1.11979 -3.47771
upperback -0.477712 -1.64085 0.760605
thorax -2.54425 -0.763928 2.8316
lowerneck -14.2953 -3.38969 -14.2066
upperneck 17.7274 -5.24259 15.7568
head 8.64893 -2.16781 7.19393
rclavicle 1.93539e-014 1.12919e-014
rhumerus -9.79576 5.30503 -43.9921
rradius 122.478
rwrist -24.4811
rhand -28.2441 -16.4961
rfingers 7.12502
rthumb -1.62167 -46.4697
lclavicle 1.93539e-014 1.12919e-014
lhumerus -20.6384 -4.8698 46.7101
lradius 100.24
lwrist 10.5158
lhand -32.9264 19.3373
lfingers 7.12502
lthumb -6.14312 49.2283
rfemur -5.99801 -18.4966 14.4017
rtibia 41.5122
rfoot -34.4807 12.7494
rtoes -15.9242
lfemur -1.60713 0.956051 -7.9925
ltibia 25.0065
lfoot 19.4573 7.18113
ltoes -1.82588
360
root 5.12997 21.3301 -48.2501 -174.951 -8.18747 179.785
lowerback 6.38853 -0.891039 -3.70801
upperback -1.88274 -1.44084 1.34196
thorax -5.42496 -0.565415 3.64249
lowerneck -12.7828 -3.11358 -13.8151
upperneck 18.377 -4.74217 13.5483
head 8.43344 -2.16263 6.39672
rclavicle -2.27981e-014 1.96797e-014
rhumerus -11.214 6.54653 -42.7206
rradius 123.224
rwrist -25.149
rhand -28.5942 -17.2723
rfingers 7.12502
rthumb -1.95978 -47.243
lclavicle -2.27981e-014 1.96797e-014
lhumerus -20.6384 -4.8698 46.7101
lradius 100.24
lwrist 10.5158
lhand -32.9264 19.3373
lfingers 7.12502
lthumb -6.14312 49.2283
rfemur -5.88591 -19.1368 14.4908
rtibia 40.1344
rfoot -33.8683 12.6466
rtoes -15.4664
lfemur -1.72034 0.84993 -7.91027
ltibia 24.3813
lfoot 17.8035 6.72536
ltoes -2.99461
361
root 5.11893 21.4507 -48.5153 -175.357 -8.12454 179.862
lowerback 6.92311 -0.877534 -3.34703
upperback -1.85719 -1.40979 1.30672
thorax -5.71362 -0.556034 3.41245
lowerneck -12.8277 -2.85379 -13.5171
upperneck 18.5619 -4.37033 13.1719
head 8.43069 -1.99958 6.25811
rclavicle -1.55301e-015 4.77083e-015
rhumerus -11.214 6.54653 -42.7206
rradius 123.224
rwrist -25.149
rhand -28.5942 -17.2723
rfingers 7.12502
rthumb -1.95978 -47.243
lclavicle -1.55301e-015 4.77083e-015
lhumerus -20.6384 -4.8698 46.7101
lradius 100.24
lwrist 10.5158
lhand -32.9264 19.3373
lfingers 7.12502
lthumb -6.14312 49.2283
rfemur -5.7668 -19.3692 14.5487
rtibia 38.6059
rfoot -33.1258 12.4131
rtoes -15.0752
lfemur -1.75373 0.787429 -7.97039
ltibia 23.4314
lfoot 16.3022 5.9394
ltoes -3.34558
362
root 5.11657 21.5604 -48.7813 -175.545 -8.07649 179.85
lowerback 7.11887 -0.014776 -2.1974
upperback -1.56003 -0.161101 1.20249
thorax -5.61477 0.0133263 2.50903
lowerneck -13.9773 -2.52024 -12.7504
upperneck 18.8664 -3.3581 11.0108
head 8.55389 -1.58793 5.48699
rclavicle 1.00386e-014 6.16232e-015
rhumerus -11.214 6.54653 -42.7206
rradius 123.224
rwrist -25.149
rhand -28.5942 -17.2723
rfingers 7.12502
rthumb -1.95978 -47.243
lclavicle 1.00386e-014 6.16232e-015
lhumerus -20.6384 -4.8698 46.7101
lradius 100.24
lwrist 10.5158
lhand -32.9264 19.3373
lfingers 7.12502
lthumb -6.14312 49.2283
rfemur -5.90419 -19.4177 14.6438
rtibia 36.986
rfoot -32.3983 11.9829
rtoes -15.2174
lfemur -1.95768 0.311748 -8.10614
ltibia 22.3068
lfoot 14.7024 5.64815
ltoes -3.87557
363
root 5.11245 21.6555 -49.0431 -175.68 -7.97933 179.855
lowerback 7.77141 0.0619819 -2.0239
upperback -1.42799 -0.0560932 1.16365
thorax -5.85347 0.0603435 2.36148
lowerneck -16.0357 -1.18609 -10.014
upperneck 19.9457 -1.28133 8.08203
head 8.99658 -0.649506 4.27569
rclavicle -2.19657e-014 -3.37934e-015
rhumerus -11.214 6.54653 -42.7206
rradius 123.224
rwrist -25.149
rhand -28.5942 -17.2723
rfingers 7.12502
rthumb -1.95978 -47.243
lclavicle -2.19657e-014 -3.37934e-015
lhumerus -20.6384 -4.8698 46.7101
lradius 100.24
lwrist 10.5158
lhand -32.9264 19.3373
lfingers 7.12502
lthumb -6.14312 49.2283
rfemur -6.10864 -19.2447 14.7812
rtibia 35.263
rfoot -31.648 11.4729
rtoes -14.9192
lfemur -2.23594 -0.0602718 -8.22688
ltibia 21.0709
lfoot 13.3213 5.43274
ltoes -3.61161
364
root 5.11292 21.735 -49.2981 -175.624 -7.6855 179.937
lowerback 7.6495 0.148417 -1.94449
upperback -1.29518 0.0716502 1.24144
thorax -5.65155 0.117206 2.38064
lowerneck -15.8847 -0.850179 -9.65218
upperneck 19.7131 -0.798317 7.65889
head 8.83835 -0.433273 4.11716
rclavicle 1.98785e-016 -1.19271e-014
rhumerus -11.214 6.54653 -42.7206
rradius 123.224
rwrist -25.149
rhand -28.5942 -17.2723
rfingers 7.12502
rthumb -1.95978 -47.243
lclavicle 1.98785e-016 -1.19271e-014
lhumerus -20.6384 -4.8698 46.7101
lradius 100.24
lwrist 10.5158
lhand -32.9264 19.3373
lfingers 7.12502
lthumb -6.14312 49.2283
rfemur -6.61334 -18.7559 15.099
rtibia 33.4891
rfoot -30.9327 10.9114
rtoes -14.8634
lfemur -2.72907 -0.340628 -8.28867
ltibia 19.8205
lfoot 12.1508 5.42839
ltoes -4.06499
365
root 5.11352 21.8026 -49.5539 -175.636 -7.5776 179.916
lowerback 7.61546 0.209101 -1.90173
upperback -1.07645 0.157247 1.28967
thorax -5.40739 0.152406 2.39525
lowerneck -15.8699 -0.49836 -9.2878
upperneck 19.4742 -0.268427 7.20239
head 8.70378 -0.192719 3.95368
rclavicle 5.46658e-016 -1.15295e-014
rhumerus -11.214 6.54653 -42.7206
rradius 123.224
rwrist -25.149
rhand -28.5942 -17.2723
rfingers 7.12502
rthumb -1.95978 -47.243
lclavicle 5.46658e-016 -1.15295e-014
lhumerus -20.6384 -4.8698 46.7101
lradius 100.24
lwrist 10.5158
lhand -32.9264 19.3373
lfingers 7.12502
lthumb -6.14312 49.2283
rfemur -7.02503 -18.4216 15.2361
rtibia 31.7383
rfoot -30.2733 10.4372
rtoes -14.7222
lfemur -3.17617 -0.856651 -8.39001
ltibia 18.5345
lfoot 11.3265 5.6726
ltoes -4.31145
